<svg width="100%" height="40" viewBox="0 0 161 80" fill="none" xmlns="http://www.w3.org/2000/svg">
<path d="M75.1054 21.7765V24.7765H72.6054V27.0098H75.1054V35.8098C75.1054 37.7098 75.4387 39.1432 76.2387 40.0432C76.9387 40.8098 78.0387 41.2765 79.4054 41.2765C80.5387 41.2765 81.4387 41.0765 82.0054 40.8765L81.872 38.6432C81.4387 38.7765 80.972 38.8432 80.172 38.8432C78.5387 38.8432 77.972 37.7098 77.972 35.7098V27.0098H82.172V24.7765H77.972V20.9098L75.1054 21.7765ZM85.4739 40.9098H88.4072V32.3098C88.4072 31.8432 88.4405 31.3432 88.5072 30.9432C88.9072 28.7432 90.3739 27.2098 92.4405 27.2098C92.8405 27.2098 93.1405 27.2098 93.4405 27.2765V24.5098C93.1739 24.4765 92.9405 24.4432 92.6405 24.4432C90.6739 24.4432 88.8739 25.8099 88.1405 27.9765H88.0405L87.9072 24.7765H85.3405C85.4405 26.2765 85.4739 27.9098 85.4739 29.8098V40.9098ZM99.4423 40.9098V24.7765H96.509V40.9098H99.4423ZM97.9757 18.4099C96.8757 18.4099 96.1423 19.2432 96.1423 20.2432C96.1423 21.2432 96.8423 22.0432 97.909 22.0432C99.0757 22.0432 99.7757 21.2432 99.7757 20.2432C99.7757 19.2098 99.0423 18.4099 97.9757 18.4099ZM104.322 36.7432C104.322 38.1765 104.255 39.8098 104.188 40.9098H106.688L106.855 38.2765H106.922C108.155 40.3765 110.022 41.2765 112.355 41.2765C115.955 41.2765 119.622 38.4098 119.622 32.6432C119.622 27.7765 116.822 24.4432 112.788 24.4432C110.188 24.4432 108.322 25.5765 107.288 27.3765H107.222V17.2432H104.322V36.7432ZM107.222 31.5765C107.222 31.1098 107.288 30.7098 107.388 30.3432C107.988 28.1432 109.855 26.7432 111.822 26.7432C114.988 26.7432 116.655 29.5098 116.655 32.7432C116.655 36.4432 114.855 38.9432 111.755 38.9432C109.622 38.9432 107.888 37.5432 107.355 35.5098C107.255 35.1765 107.222 34.8098 107.222 34.4432V31.5765ZM136.266 33.3765C136.333 33.0432 136.366 32.6098 136.366 32.0098C136.366 29.0432 134.999 24.4432 129.699 24.4432C124.999 24.4432 122.133 28.2432 122.133 33.1098C122.133 37.9765 125.099 41.2765 130.066 41.2765C132.633 41.2765 134.433 40.7098 135.466 40.2432L134.933 38.1432C133.866 38.6098 132.566 38.9765 130.466 38.9765C127.499 38.9765 124.999 37.3432 124.933 33.3765H136.266ZM124.966 31.2765C125.199 29.2432 126.466 26.5432 129.466 26.5432C132.766 26.5432 133.566 29.4432 133.533 31.2765H124.966ZM138.899 40.1432C140.032 40.8098 141.665 41.2765 143.432 41.2765C147.199 41.2765 149.432 39.2765 149.432 36.4098C149.432 34.0098 147.965 32.6098 145.199 31.5765C143.099 30.7432 142.165 30.1432 142.165 28.8098C142.165 27.6098 143.099 26.6098 144.832 26.6098C146.332 26.6098 147.499 27.1765 148.132 27.5765L148.832 25.4432C147.965 24.8765 146.532 24.4432 144.899 24.4432C141.465 24.4432 139.332 26.5765 139.332 29.1765C139.332 31.1098 140.699 32.6765 143.632 33.7432C145.765 34.5432 146.599 35.2765 146.599 36.6765C146.599 38.0432 145.599 39.0765 143.499 39.0765C142.032 39.0765 140.499 38.4765 139.599 37.9432L138.899 40.1432Z" fill="#84BF67"/>
<path d="M11.227 47.0735C11.227 47.0735 28.2586 59.4856 15.1759 79.2531C15.1759 79.2531 6.1859 59.6781 9.67391 48.9567L11.227 47.0735Z" fill="#E48432"/>
<path d="M9.88919 50.2956C9.88919 50.2956 21.0079 64.2805 5.85775 77.4838C5.85775 77.4838 2.9265 59.4593 8.19525 51.4842L9.88919 50.2956Z" fill="#E69E4F"/>
<path d="M7.11851 38.5862C5.30265 38.5862 3.48679 39.279 2.10138 40.6645C-0.669615 43.4354 -0.669615 47.9278 2.10138 50.6988C3.48679 52.0842 5.30265 52.7769 7.11851 52.7769C8.93437 52.7769 10.7502 52.0842 12.1356 50.6988C14.9066 47.9278 14.9066 43.4354 12.1356 40.6645C10.7502 39.279 8.93437 38.5862 7.11851 38.5862ZM7.11851 41.9637C8.11163 41.9637 9.04532 42.3504 9.74748 43.0525C10.4498 43.7547 10.8365 44.6885 10.8365 45.6817C10.8365 46.6746 10.4498 47.6083 9.74748 48.3106C9.04532 49.0128 8.11163 49.3995 7.11851 49.3995C6.12538 49.3995 5.1917 49.0128 4.48954 48.3106C3.78721 47.6083 3.40049 46.6746 3.40049 45.6817C3.40049 44.6885 3.78721 43.7547 4.48954 43.0525C5.1917 42.3504 6.12538 41.9637 7.11851 41.9637Z" fill="#84BF67"/>
<path d="M0.00170898 26.4989C0.00170898 26.4989 23.2065 16.8228 37.0054 42.0679C37.0054 42.0679 45.0107 59.1597 50.8688 61.6077C50.8688 61.6077 36.3012 67.5885 26.0415 56.4201C15.782 45.2517 23.9887 39.5024 0.00170898 26.4989Z" fill="#E57729"/>
<path d="M0 26.4987C0 26.4987 19.9096 11.1463 39.7725 31.9599C39.7725 31.9599 51.9286 46.3975 58.2207 47.2457C58.2207 47.2457 45.6973 56.7933 32.8968 48.6607C20.0961 40.5284 26.5352 32.8509 0 26.4987Z" fill="#E48432"/>
<path d="M0.000915527 26.4992C0.000915527 26.4992 15.2587 6.51698 39.8316 21.4804C39.8316 21.4804 55.3103 32.2798 61.6075 31.4708C61.6075 31.4708 51.9819 43.9342 37.5126 39.3919C23.0433 34.8495 27.276 25.7672 0.000915527 26.4992Z" fill="#E59442"/>
<path d="M60.795 15.3558C54.9217 17.7671 37.1753 11.3419 37.1753 11.3419C9.56701 3.2483 0.000854492 26.4987 0.000854492 26.4987C26.157 18.7322 24.4193 28.6006 39.5712 29.2432C54.7231 29.8857 60.795 15.3558 60.795 15.3558Z" fill="#E69E4F"/>
<path d="M55.8415 0.000121107C51.5196 3.29512 37.1188 3.80426 33.0605 3.88262C32.4285 3.89477 31.796 3.87299 31.1665 3.81405C0.226273 0.922657 0.00268555 26.498 0.00268555 26.498C23.2576 12.2263 24.1332 22.2084 38.9352 18.9075C53.7372 15.6066 55.8415 0.000121107 55.8415 0.000121107Z" fill="#E5A858"/>
</svg>
