<svg width="263" height="129" viewBox="0 0 263 129" fill="none" xmlns="http://www.w3.org/2000/svg">
<path d="M122.783 37.2398V42.6398H118.283V46.6598H122.783V62.4998C122.783 65.9198 123.383 68.4998 124.823 70.1198C126.083 71.4998 128.063 72.3398 130.523 72.3398C132.563 72.3398 134.183 71.9798 135.203 71.6198L134.963 67.5998C134.183 67.8398 133.343 67.9598 131.903 67.9598C128.963 67.9598 127.943 65.9198 127.943 62.3198V46.6598H135.503V42.6398H127.943V35.6798L122.783 37.2398ZM141.446 71.6798H146.726V56.1998C146.726 55.3598 146.786 54.4598 146.906 53.7398C147.626 49.7798 150.266 47.0198 153.986 47.0198C154.706 47.0198 155.246 47.0198 155.786 47.1398V42.1598C155.306 42.0998 154.886 42.0398 154.346 42.0398C150.806 42.0398 147.566 44.4998 146.246 48.3998H146.066L145.826 42.6398H141.206C141.386 45.3398 141.446 48.2798 141.446 51.6998V71.6798ZM166.59 71.6798V42.6398H161.31V71.6798H166.59ZM163.95 31.1798C161.97 31.1798 160.65 32.6798 160.65 34.4798C160.65 36.2798 161.91 37.7198 163.83 37.7198C165.93 37.7198 167.19 36.2798 167.19 34.4798C167.19 32.6198 165.87 31.1798 163.95 31.1798ZM175.372 64.1798C175.372 66.7598 175.252 69.6998 175.132 71.6798H179.632L179.932 66.9398H180.052C182.272 70.7198 185.632 72.3398 189.832 72.3398C196.312 72.3398 202.912 67.1798 202.912 56.7998C202.912 48.0398 197.872 42.0398 190.612 42.0398C185.932 42.0398 182.572 44.0798 180.712 47.3198H180.592V29.0798H175.372V64.1798ZM180.592 54.8798C180.592 54.0398 180.712 53.3198 180.892 52.6598C181.972 48.6998 185.332 46.1798 188.872 46.1798C194.572 46.1798 197.572 51.1598 197.572 56.9798C197.572 63.6398 194.332 68.1398 188.752 68.1398C184.912 68.1398 181.792 65.6198 180.832 61.9598C180.652 61.3598 180.592 60.6998 180.592 60.0398V54.8798ZM232.872 58.1198C232.992 57.5198 233.052 56.7398 233.052 55.6598C233.052 50.3198 230.592 42.0398 221.052 42.0398C212.592 42.0398 207.432 48.8798 207.432 57.6398C207.432 66.3998 212.772 72.3398 221.712 72.3398C226.332 72.3398 229.572 71.3198 231.432 70.4798L230.472 66.6998C228.552 67.5398 226.212 68.1998 222.432 68.1998C217.092 68.1998 212.592 65.2598 212.472 58.1198H232.872ZM212.532 54.3398C212.952 50.6798 215.232 45.8198 220.632 45.8198C226.572 45.8198 228.012 51.0398 227.952 54.3398H212.532ZM237.611 70.2998C239.651 71.4998 242.591 72.3398 245.771 72.3398C252.551 72.3398 256.571 68.7398 256.571 63.5798C256.571 59.2598 253.931 56.7398 248.951 54.8798C245.171 53.3798 243.491 52.2998 243.491 49.8998C243.491 47.7398 245.171 45.9398 248.291 45.9398C250.991 45.9398 253.091 46.9598 254.231 47.6798L255.491 43.8398C253.931 42.8198 251.351 42.0398 248.411 42.0398C242.231 42.0398 238.391 45.8798 238.391 50.5598C238.391 54.0398 240.851 56.8598 246.131 58.7798C249.971 60.2198 251.471 61.5398 251.471 64.0598C251.471 66.5198 249.671 68.3798 245.891 68.3798C243.251 68.3798 240.491 67.2998 238.871 66.3398L237.611 70.2998Z" fill="#84BF67"/>
<path d="M18.2741 76.6212C18.2741 76.6212 45.9964 96.8244 24.7017 129C24.7017 129 10.0687 97.1378 15.7462 79.6866L18.2741 76.6212Z" fill="#E48432"/>
<path d="M16.0966 81.8658C16.0966 81.8658 34.1946 104.629 9.53468 126.12C9.53468 126.12 4.76349 96.7816 13.3394 83.8006L16.0966 81.8658Z" fill="#E69E4F"/>
<path d="M11.5868 62.8067C8.63112 62.8067 5.67544 63.9342 3.42041 66.1895C-1.08993 70.6995 -1.08993 78.0119 3.42041 82.5222C5.67544 84.7773 8.63112 85.9048 11.5868 85.9048C14.5425 85.9048 17.4981 84.7773 19.7532 82.5222C24.2635 78.0119 24.2635 70.6995 19.7532 66.1895C17.4981 63.9342 14.5425 62.8067 11.5868 62.8067ZM11.5868 68.3041C13.2033 68.3041 14.7231 68.9335 15.866 70.0764C17.0091 71.2193 17.6386 72.7393 17.6386 74.3559C17.6386 75.9721 17.0091 77.4918 15.866 78.635C14.7231 79.7779 13.2033 80.4074 11.5868 80.4074C9.97028 80.4074 8.45053 79.7779 7.30762 78.635C6.16444 77.4918 5.53498 75.9721 5.53498 74.3559C5.53498 72.7393 6.16444 71.2193 7.30762 70.0764C8.45053 68.9335 9.97028 68.3041 11.5868 68.3041Z" fill="#84BF67"/>
<path d="M0.00280762 43.132C0.00280762 43.132 37.7732 27.3822 60.2336 68.4736C60.2336 68.4736 73.2639 96.294 82.7991 100.278C82.7991 100.278 59.0874 110.014 42.3877 91.8348C25.6883 73.656 39.0464 64.2978 0.00280762 43.132Z" fill="#E57729"/>
<path d="M0 43.1318C0 43.1318 32.4069 18.1428 64.7376 52.021C64.7376 52.021 84.5241 75.521 94.7658 76.9017C94.7658 76.9017 74.3814 92.4423 53.546 79.2048C32.7103 65.9679 43.1914 53.4713 0 43.1318Z" fill="#E48432"/>
<path d="M0.00146484 43.1326C0.00146484 43.1326 24.8365 10.6075 64.8339 34.9634C64.8339 34.9634 90.0285 52.5416 100.278 51.2247C100.278 51.2247 84.6108 71.5115 61.0591 64.1181C37.5074 56.7243 44.3971 41.941 0.00146484 43.1326Z" fill="#E59442"/>
<path d="M98.9559 24.9944C89.3959 28.9193 60.5101 18.461 60.5101 18.461C15.5722 5.28707 0.00140381 43.1317 0.00140381 43.1317C42.5757 30.4902 39.7473 46.553 64.41 47.5989C89.0727 48.6448 98.9559 24.9944 98.9559 24.9944Z" fill="#E69E4F"/>
<path d="M90.8931 -2.28605e-05C83.8583 5.36324 60.4182 6.19197 53.8126 6.31951C52.7837 6.3393 51.7543 6.30384 50.7296 6.20791C0.368267 1.50159 0.0043335 43.1306 0.0043335 43.1306C37.8564 19.9005 39.2816 36.1484 63.3747 30.7755C87.4679 25.4026 90.8931 -2.28605e-05 90.8931 -2.28605e-05Z" fill="#E5A858"/>
</svg>