<svg width="120" height="155" viewBox="0 0 120 155" fill="none" xmlns="http://www.w3.org/2000/svg">
<path d="M21.868 91.6902C21.868 91.6902 55.0424 115.867 29.5597 154.37C29.5597 154.37 12.0488 116.242 18.8428 95.3584L21.868 91.6902Z" fill="#E48432"/>
<path d="M19.2623 97.9663C19.2623 97.9663 40.9196 125.206 11.4098 150.924C11.4098 150.924 5.70024 115.816 15.9628 100.282L19.2623 97.9663Z" fill="#E69E4F"/>
<path d="M13.8655 75.1587C10.3286 75.1587 6.79161 76.508 4.09308 79.2069C-1.3043 84.6039 -1.3043 93.3544 4.09308 98.7518C6.79161 101.45 10.3286 102.8 13.8655 102.8C17.4025 102.8 20.9395 101.45 23.638 98.7518C29.0354 93.3544 29.0354 84.6039 23.638 79.2069C20.9395 76.508 17.4025 75.1587 13.8655 75.1587ZM13.8655 81.7373C15.8 81.7373 17.6186 82.4906 18.9863 83.8582C20.3543 85.2259 21.1075 87.0449 21.1075 88.9793C21.1075 90.9134 20.3543 92.7321 18.9863 94.1001C17.6186 95.4678 15.8 96.221 13.8655 96.221C11.9311 96.221 10.1125 95.4678 8.74478 94.1001C7.37677 92.7321 6.62352 90.9134 6.62352 88.9793C6.62352 87.0449 7.37677 85.2259 8.74478 83.8582C10.1125 82.4906 11.9311 81.7373 13.8655 81.7373Z" fill="#84BF67"/>
<path d="M0.00341797 51.6147C0.00341797 51.6147 45.2021 32.7674 72.0798 81.9402C72.0798 81.9402 87.6726 115.232 99.0831 120C99.0831 120 70.7082 131.65 50.7241 109.896C30.7404 88.1418 46.7257 76.9431 0.00341797 51.6147Z" fill="#E57729"/>
<path d="M0 51.6144C0 51.6144 38.7803 21.7108 77.4695 62.2519C77.4695 62.2519 101.147 90.3736 113.403 92.0258C113.403 92.0258 89.0099 110.623 64.0768 94.7819C39.1434 78.9417 51.6858 63.9873 0 51.6144Z" fill="#E48432"/>
<path d="M0.00170898 51.6154C0.00170898 51.6154 29.721 12.6936 77.5847 41.8396C77.5847 41.8396 107.734 62.8749 120 61.299C120 61.299 101.251 85.5755 73.0675 76.728C44.884 67.8802 53.1285 50.1895 0.00170898 51.6154Z" fill="#E59442"/>
<path d="M118.417 29.9099C106.977 34.6066 72.4106 22.0916 72.4106 22.0916C18.6348 6.3267 0.00170898 51.6142 0.00170898 51.6142C50.9491 36.4864 47.5644 55.7084 77.0775 56.9599C106.591 58.2115 118.417 29.9099 118.417 29.9099Z" fill="#E69E4F"/>
<path d="M108.769 1.5864e-06C100.351 6.41805 72.3006 7.40976 64.3958 7.56239C63.1646 7.58607 61.9328 7.54364 60.7065 7.42884C0.440634 1.79693 0.00512695 51.6131 0.00512695 51.6131C45.3015 23.8144 47.007 43.2577 75.8385 36.8281C104.67 30.3985 108.769 1.5864e-06 108.769 1.5864e-06Z" fill="#E5A858"/>
</svg>
